<svg width="14" height="26" viewBox="0 0 14 26" fill="none" xmlns="http://www.w3.org/2000/svg">
<g filter="url(#filter0_d_1058_14465)">
<rect x="9" y="2" width="1" height="16" fill="#999999"/>
<rect opacity="0.5" x="9" width="1" height="2" fill="#999999"/>
<rect x="4" y="2" width="1" height="16" fill="white"/>
<rect opacity="0.5" x="4" width="1" height="2" fill="white"/>
<rect x="6" y="4" width="1" height="1" fill="#999999"/>
<rect x="6" y="7" width="1" height="1" fill="#999999"/>
<rect x="6" y="10" width="1" height="1" fill="#999999"/>
<rect x="6" y="13" width="1" height="1" fill="#999999"/>
<rect x="6" y="5" width="1" height="1" fill="#BBBBBB"/>
<rect x="6" y="8" width="1" height="1" fill="#BBBBBB"/>
<rect x="6" y="11" width="1" height="1" fill="#BBBBBB"/>
<rect x="6" y="14" width="1" height="1" fill="#BBBBBB"/>
<rect x="7" y="5" width="1" height="1" fill="white"/>
<rect x="7" y="8" width="1" height="1" fill="white"/>
<rect x="7" y="11" width="1" height="1" fill="white"/>
<rect x="7" y="14" width="1" height="1" fill="white"/>
<rect x="7" y="4" width="1" height="1" fill="#BBBBBB"/>
<rect x="7" y="7" width="1" height="1" fill="#BBBBBB"/>
<rect x="7" y="10" width="1" height="1" fill="#BBBBBB"/>
<rect x="7" y="13" width="1" height="1" fill="#BBBBBB"/>
</g>
<defs>
<filter id="filter0_d_1058_14465" x="0" y="0" width="14" height="26" filterUnits="userSpaceOnUse" color-interpolation-filters="sRGB">
<feFlood flood-opacity="0" result="BackgroundImageFix"/>
<feColorMatrix in="SourceAlpha" type="matrix" values="0 0 0 0 0 0 0 0 0 0 0 0 0 0 0 0 0 0 127 0" result="hardAlpha"/>
<feOffset dy="4"/>
<feGaussianBlur stdDeviation="2"/>
<feComposite in2="hardAlpha" operator="out"/>
<feColorMatrix type="matrix" values="0 0 0 0 0 0 0 0 0 0 0 0 0 0 0 0 0 0 0.25 0"/>
<feBlend mode="normal" in2="BackgroundImageFix" result="effect1_dropShadow_1058_14465"/>
<feBlend mode="normal" in="SourceGraphic" in2="effect1_dropShadow_1058_14465" result="shape"/>
</filter>
</defs>
</svg>
