<?xml version="1.0" encoding="UTF-8"?><svg id="_레이어_2" xmlns="http://www.w3.org/2000/svg" viewBox="0 0 297.62 337.7"><defs><style>.cls-1{fill:#f9c4db;}.cls-2{fill:#fff;}.cls-3{fill:#fc699d;}.cls-4{fill:#b8f4f3;}</style></defs><g id="_레이어_1-2"><g><path class="cls-3" d="M168.74,153.71c-.36,0-.73-.03-1.09-.11-3.02-.6-4.98-3.54-4.38-6.56,6.05-30.36-5.86-47.86-6.37-48.59-1.76-2.52-1.16-5.99,1.35-7.76,2.51-1.77,5.96-1.19,7.75,1.3,.63,.88,15.26,21.88,8.21,57.23-.53,2.65-2.86,4.49-5.46,4.49Z"/><path class="cls-3" d="M66.56,282.08l-12.39,10.83s-3.99-25.63-23.51-30.83c-16-4.26-26.79,9.75-30.16,14.94-.71,1.09-.66,2.5,.1,3.55l40.3,55.66c1.17,1.61,3.44,1.94,5.02,.72l41.51-32.2-20.87-22.67Z"/><g><path class="cls-2" d="M82.64,218.05c-8.27,.63-21.49-2.2-21.75-14.91-.29-14.27,21.75-16.59,21.75-16.59,17.76-12.6,18.14-28.13,17.14-39.96s-14.53-15.67-27.55-2.44c-13.02,13.23-8.4,27.76-8.4,27.76,0,0-25.05,7.32-21.41,35.77,3.15,24.65,31.7,31.58,43.88,26.12"/><path class="cls-3" d="M76.9,237.76c-6.49,0-13.74-1.8-19.78-5.19-9.56-5.36-15.57-14.1-16.91-24.61-3.21-25.1,14.87-34.88,21.02-37.45-.85-4.74-1.58-16.75,9.42-27.92,7.45-7.57,15.96-10.63,22.78-8.16,4.88,1.76,8.09,6.24,8.58,11.98,1.15,13.6-.09,29.22-18.07,41.97-.31,.22-.68,.36-1.06,.4-.2,.02-20,2.27-19.75,14.32,.07,3.5,1.29,6.34,3.62,8.45,4.1,3.72,10.82,4.64,15.73,4.28,1.24-.11,2.3,.83,2.39,2.05,.09,1.23-.83,2.3-2.05,2.39-5.85,.45-13.92-.75-19.07-5.42-3.27-2.97-4.98-6.89-5.08-11.66-.31-14.89,19.33-18.26,23.14-18.78,15.67-11.35,16.84-24.79,15.75-37.63-.34-4.02-2.4-6.99-5.64-8.16-3.96-1.43-10.79-.32-18.09,7.1-11.85,12.05-8.03,24.98-7.86,25.52,.18,.57,.12,1.19-.16,1.72-.28,.53-.76,.92-1.34,1.09-.94,.28-23.17,7.19-19.83,33.35,1.49,11.63,8.8,17.99,14.67,21.29,9.51,5.33,20.54,5.57,26.09,3.08,1.12-.51,2.44,0,2.95,1.12,.5,1.13,0,2.44-1.12,2.95-2.9,1.3-6.48,1.93-10.31,1.93Z"/></g><g><path class="cls-4" d="M161.56,154.44s26.29-30.03,65.4-11.23c38.21,18.37,24.54,74.43-.63,100.04-25.19,25.64-51.27,32.01-76.21,36.95,0,0-33.59-9.66-52.8-43.98-18.24-32.59-19.21-63.61-4.41-82.51,14.8-18.89,38.42-20.49,50.39-17.17s21.81,13.08,21.81,13.08"/><path class="cls-3" d="M150.12,282.43c-.21,0-.41-.03-.62-.09-1.41-.4-34.7-10.31-54.13-45.04-18.19-32.51-19.81-65.07-4.22-84.97,15.38-19.63,39.96-21.48,52.74-17.95,10.79,2.99,19.76,10.82,22.16,13.05,10.31-7.96,32.79-20.22,61.87-6.24,13.18,6.34,21.53,17.57,24.13,32.49,4.53,25.94-8.71,55.41-24.14,71.12-25.06,25.5-50.9,32.33-77.37,37.57-.14,.03-.29,.04-.43,.04Zm-18.01-145.06c-11.83,0-26.97,4.34-37.44,17.71-14.46,18.46-12.7,49.13,4.6,80.04,17.26,30.84,46.8,41.41,50.98,42.77,25.57-5.09,50.5-11.79,74.49-36.21,16.78-17.08,26.64-45.98,22.93-67.22-2.35-13.44-9.84-23.55-21.67-29.24-37.15-17.86-62.5,10.4-62.75,10.69-.81,.93-2.22,1.02-3.15,.21-.93-.81-1.02-2.22-.21-3.15,.05-.06,.98-1.1,2.71-2.65-2.67-2.4-10.7-9.09-19.89-11.64-2.94-.82-6.58-1.32-10.59-1.32Z"/></g><g><path class="cls-2" d="M275.87,192.23c10.71,15.33,11.97,39.89-9.24,55.85-21.2,15.96-46.4,3.15-46.4,3.15l14.49-15.54s14.7,5.46,24.77-10.08c10.08-15.54-2.1-26.87-2.1-26.87-5.67-5.88-14.28-17.64-8.19-32.54,6.09-14.91,14.54-19.11,24.62-17.85s20.47,14.65,3.22,45.66"/><path class="cls-3" d="M242.09,258.37c-12.48,0-22.21-4.83-22.86-5.16-.63-.32-1.06-.91-1.19-1.6-.12-.69,.09-1.4,.57-1.91l14.49-15.54c.61-.66,1.57-.88,2.41-.57,.53,.19,13.19,4.58,22.12-9.2,8.96-13.81-1.31-23.62-1.75-24.03-7.43-7.7-14.89-19.94-8.73-35.02,5.91-14.47,14.72-20.75,26.96-19.22,5.2,.65,9.6,3.84,12.09,8.74,3.24,6.39,4.68,18.33-6.57,39.08,9.79,16.74,8.98,40.38-11.65,55.9-8.65,6.51-17.84,8.51-25.89,8.51Zm-18.05-7.96c6.92,2.62,25.42,7.79,41.25-4.12,18.88-14.21,19.26-35.99,9.91-51.02-.04-.05-.07-.11-.1-.16-.34-.54-.7-1.08-1.06-1.6-.71-1.01-.46-2.4,.55-3.11,.61-.43,1.36-.5,2.01-.28,9.85-18.95,7.81-28.9,5.61-33.23-1.81-3.56-4.97-5.87-8.67-6.33-10.24-1.26-17.1,3.81-22.27,16.48-5.25,12.85,1.3,23.49,7.73,30.15,.05,.04,13.33,12.72,2.36,29.64-8.99,13.86-21.64,12.37-25.93,11.37l-11.39,12.22Z"/></g><path class="cls-3" d="M91.54,239.98c-1.88,0-3.71-.95-4.76-2.67-3.28-5.36-6.4-12.7-8.79-20.65-.89-2.95,.79-6.06,3.74-6.95,2.95-.88,6.06,.79,6.95,3.74,2.09,6.96,4.87,13.54,7.62,18.04,1.61,2.63,.78,6.06-1.85,7.67-.91,.56-1.91,.82-2.9,.82Z"/><g><path class="cls-2" d="M193.84,271.48s1.26,10.71,12.28,12.75c11.02,2.05,22.04-5.35,22.04-5.35l-1.63,14.96s-11.81,13.64-28.97,9.39c-17.16-4.25-17.74-25.92-17.74-25.92"/><path class="cls-3" d="M204.27,306.3c-2.29,0-4.71-.27-7.24-.9-18.6-4.61-19.41-27.08-19.43-28.03-.03-1.23,.94-2.25,2.17-2.29,1.24-.02,2.26,.94,2.29,2.17,.02,.82,.76,20.03,16.05,23.82,13.98,3.47,24.06-5.88,26.3-8.2l1.08-9.93c-4.43,2.16-12.02,4.93-19.77,3.5-10-1.86-13.59-10.42-14.09-14.69-.14-1.22,.73-2.33,1.96-2.48,1.22-.15,2.33,.73,2.47,1.95,.05,.39,1.27,9.12,10.47,10.83,9.97,1.85,20.29-4.94,20.4-5.01l3.97-2.65-2.22,20.4-.46,.53c-.45,.52-9.71,11-23.95,11Z"/></g><g><polygon class="cls-2" points="72.75 284.87 108.02 257.47 118.73 267.86 83.33 300.3 72.75 284.87"/><path class="cls-3" d="M82.94,303.68l-13.22-19.28,38.46-29.88,13.8,13.39-39.04,35.77Zm-7.16-18.34l7.93,11.58,31.76-29.1-7.62-7.39-32.08,24.92Z"/></g><path class="cls-3" d="M119.57,274.86c-1.07,0-2.16-.31-3.12-.96-8.52-5.76-15.33-15.39-15.61-15.8-1.77-2.52-1.16-6,1.36-7.77,2.52-1.76,6-1.16,7.76,1.36h0c.06,.08,5.94,8.38,12.73,12.97,2.55,1.72,3.22,5.19,1.5,7.74-1.08,1.6-2.84,2.46-4.63,2.46Z"/><path class="cls-3" d="M176.5,283.74c-2.64,0-4.99-1.89-5.48-4.58-.55-3.03,1.46-5.93,4.48-6.48h0c.1-.02,10-1.9,18.4-7.48,2.57-1.7,6.03-1.01,7.73,1.55,1.71,2.57,1.01,6.03-1.55,7.73-10.38,6.9-22.09,9.08-22.59,9.17-.34,.06-.67,.09-1,.09Z"/><circle class="cls-3" cx="156.55" cy="83.27" r="17.62"/><path class="cls-3" d="M222.9,307.62c-2.52,0-4.81-1.72-5.42-4.28l-5.22-21.85c-.72-3,1.13-6,4.13-6.72,2.99-.72,6,1.13,6.72,4.13l5.22,21.85c.72,3-1.13,6-4.13,6.72-.44,.1-.87,.15-1.3,.15Z"/><path class="cls-3" d="M86.42,308.21c-1.57,0-3.13-.66-4.23-1.94l-16.73-19.44c-2.01-2.34-1.74-5.86,.59-7.87,2.33-2.01,5.85-1.74,7.87,.59l16.73,19.44c2.01,2.34,1.74,5.86-.59,7.87-1.05,.91-2.35,1.35-3.64,1.35Z"/><g><path class="cls-1" d="M91.89,185.76l-.35-8.65s37.62-4.86,75.88,1.77,55.49,10.12,55.49,10.12l-.45,9.08s-32.31-9.26-69.58-12.33-60.99,0-60.99,0Z"/><path class="cls-3" d="M189.47,241.22c-13.2,0-22.41-5.85-29.29-10.23-2.44-1.55-4.55-2.89-6.49-3.78-6.71-3.09-11.94-3.43-25.19,2.65-4.08,1.87-12.09,4.56-19.89,1.46-5.61-2.22-9.9-6.93-12.76-14-6.81-16.81-6.56-39.3-6.55-40.25,.02-1.1,.83-2.02,1.91-2.18,.27-.04,26.97-3.77,66.46-.01,39.45,3.76,67.78,12.39,68.06,12.48,1.09,.34,1.75,1.44,1.53,2.56-.39,2-9.76,49.1-33.93,51.14-1.33,.11-2.62,.16-3.87,.16Zm-44.54-20.61c3.62,0,6.98,.87,10.63,2.55,2.21,1.02,4.55,2.5,7.02,4.07,7.39,4.7,16.58,10.55,30.39,9.38,18.3-1.54,27.47-36.74,29.49-45.55-7.01-1.98-32.13-8.58-65.2-11.73-32.95-3.14-56.75-1.01-63.47-.25,.1,5.79,.86,23.36,6.21,36.57,2.39,5.89,5.84,9.77,10.27,11.53,6.26,2.49,12.96,.21,16.39-1.37,7.65-3.51,13.23-5.2,18.28-5.2Z"/><path class="cls-3" d="M223.05,200.12c-.22,0-.44-.03-.67-.1-.27-.09-27.77-8.58-66.13-12.3-38.32-3.71-64.14-.05-64.39-.01-1.22,.17-2.35-.67-2.53-1.89-.18-1.22,.67-2.35,1.88-2.53,.26-.04,26.57-3.78,65.46-.01,38.86,3.76,66.76,12.39,67.04,12.48,1.18,.37,1.83,1.62,1.46,2.79-.3,.95-1.18,1.57-2.13,1.57Z"/><g><polyline class="cls-3" points="225.08 189.5 235.25 191.81 227.85 210.55 219.39 209.09"/><path class="cls-3" d="M227.85,212.78c-.13,0-.25-.01-.38-.03l-8.46-1.46c-1.21-.21-2.03-1.36-1.82-2.58,.21-1.21,1.35-2.04,2.58-1.82l6.67,1.15,5.78-14.63-7.63-1.73c-1.2-.27-1.96-1.47-1.68-2.67,.27-1.2,1.48-1.96,2.67-1.68l10.17,2.31c.63,.14,1.18,.56,1.48,1.13,.3,.58,.34,1.25,.1,1.86l-7.4,18.74c-.34,.86-1.17,1.41-2.07,1.41Z"/></g><g><polyline class="cls-3" points="92.64 194.41 86.45 194.41 85.66 178.5 91.54 177.11"/><path class="cls-3" d="M92.64,196.64h-6.18c-1.19,0-2.17-.93-2.23-2.12l-.79-15.9c-.05-1.07,.67-2.03,1.71-2.28l5.87-1.39c1.19-.28,2.4,.46,2.68,1.66,.28,1.2-.46,2.4-1.66,2.68l-4.07,.96,.59,11.93h4.06c1.23,0,2.23,1,2.23,2.23s-1,2.23-2.23,2.23Z"/></g></g><path class="cls-3" d="M152.24,253.51c-3.75,0-8.1-.72-12.59-2.94h0c-1.48-.73-2.56-2.15-2.88-3.8-.77-3.88-1.5-11.07,2.27-15.61,2.1-2.54,5.26-3.75,9.21-3.79,12.61,.09,15.96,13.1,16.81,18.69,.41,2.69-1.17,5.23-3.75,6.05-2.12,.67-5.29,1.4-9.07,1.4Zm-4.13-21.68c-2.58,0-4.43,.71-5.64,2.17-2.76,3.33-1.71,9.95-1.33,11.9,.06,.29,.24,.55,.48,.67h0c7.61,3.76,14.75,2.42,18.33,1.29,.47-.15,.76-.62,.68-1.13-.84-5.54-3.58-14.83-12.43-14.9h-.11Z"/><path class="cls-3" d="M140.05,250.4c-.28,0-.56-.05-.84-.16-1.13-.46-1.68-1.74-1.23-2.88,1.18-2.97,5.59-7.98,13.85-5.65,1.19,.33,1.88,1.57,1.54,2.75-.33,1.19-1.56,1.88-2.75,1.54-6.27-1.77-8.29,2.53-8.5,3.02-.36,.85-1.19,1.37-2.07,1.37Z"/><path class="cls-3" d="M151.22,247.63c-.55,0-1.09-.2-1.52-.6-.9-.84-.95-2.25-.11-3.15,5.39-5.79,13.38-2.2,13.71-2.04,1.12,.52,1.61,1.84,1.09,2.96-.52,1.12-1.84,1.6-2.95,1.09-.24-.11-5.41-2.37-8.59,1.03-.44,.47-1.03,.71-1.63,.71Z"/><g><path class="cls-3" d="M169.53,209.62l7.33,4.28c1.18,.69,1.71,2.15,1.23,3.43-2.13,5.71-5.7,8.54-9.38,8.07-4.96-.63-8.23-7-6.91-17.35s6.08-15.3,11.03-14.63,6.86,4.24,7.16,10.53c.06,1.27-.73,2.44-1.94,2.84l-8.52,2.83Z"/><path class="cls-3" d="M169.51,226.57c-.31,0-.63-.02-.94-.06-2.9-.37-5.27-2.39-6.69-5.7-1.43-3.32-1.84-7.78-1.19-12.9,.82-6.47,3.06-11.41,6.31-13.91,1.81-1.39,3.87-1.98,5.98-1.69,6.75,.92,7.89,6.67,8.13,11.58,.08,1.77-1.03,3.4-2.7,3.95l-6.18,2.05,5.2,3.03c1.67,.97,2.39,2.98,1.71,4.79-2.1,5.61-5.64,8.85-9.62,8.85Zm2.42-32.1c-1.25,0-2.45,.44-3.57,1.3-2.77,2.13-4.71,6.54-5.46,12.42-.6,4.72-.25,8.78,1.02,11.74,1.11,2.59,2.81,4.1,4.92,4.36,3.25,.42,6.32-2.33,8.19-7.35,.29-.77-.03-1.66-.75-2.08l-7.33-4.28c-.38-.22-.59-.64-.55-1.08,.04-.44,.34-.8,.76-.94l8.52-2.83c.73-.24,1.21-.95,1.18-1.73-.3-6.17-2.09-8.92-6.2-9.48-.25-.03-.5-.05-.74-.05Z"/></g><g><path class="cls-3" d="M128.5,204.2l6.85,4c1.19,.7,1.71,2.17,1.22,3.46-2.03,5.42-5.39,8.41-8.85,7.97-4.7-.6-7.81-7.1-6.56-16.91,1.25-9.82,5.31-15.01,10-14.37s6.84,4.35,7.23,10.3c.09,1.3-.7,2.51-1.94,2.91l-7.96,2.64Z"/><path class="cls-3" d="M128.42,220.79c-.28,0-.56-.02-.84-.05-2.76-.35-5.03-2.37-6.4-5.68-1.36-3.28-1.74-7.6-1.13-12.48,.84-6.59,2.98-11.52,6.04-13.87,1.57-1.21,3.37-1.72,5.21-1.47,4.99,.68,7.75,4.49,8.2,11.33,.12,1.82-.99,3.48-2.7,4.05l-5.62,1.87,4.72,2.75c1.67,.97,2.39,3,1.71,4.81-2.07,5.54-5.47,8.74-9.2,8.74Zm1.98-31.38c-1.03,0-2.01,.36-2.94,1.07-2.59,1.99-4.43,6.38-5.19,12.38-.57,4.5-.24,8.42,.97,11.35,1.05,2.54,2.69,4.07,4.62,4.32,2.93,.37,5.85-2.41,7.66-7.25,.29-.78-.03-1.69-.74-2.11l-6.85-4c-.38-.22-.59-.64-.55-1.08,.04-.44,.34-.8,.76-.94l7.96-2.64c.75-.25,1.23-.98,1.18-1.78-.38-5.71-2.43-8.74-6.27-9.26-.21-.03-.41-.04-.62-.04Z"/></g><g><path class="cls-3" d="M154.1,53.17c-1.13,0-2.1-.86-2.22-2.01-.64-6.57-.9-16.57-1-23.49-1.84,3.97-3.29,8.38-3.88,10.45-.28,.99-1.22,1.66-2.24,1.62-1.03-.04-1.9-.79-2.1-1.8-1.9-9.69-3.34-34.52-3.4-35.57-.07-1.23,.87-2.28,2.1-2.35,1.24-.05,2.28,.87,2.35,2.1,.01,.19,.86,14.86,2.08,26.02,1.48-3.56,3.41-7.38,5.6-9.76,.62-.68,1.6-.91,2.45-.57,.86,.33,1.42,1.16,1.42,2.08,0,.2,.01,20.38,1.04,30.85,.12,1.23-.78,2.32-2,2.44-.07,0-.15,.01-.22,.01Z"/><path class="cls-3" d="M170.53,60.93c-.32,0-.64-.07-.95-.21-1.11-.53-1.59-1.86-1.06-2.97,.35-.74,8.67-18.16,21.44-30.07,.9-.84,2.31-.79,3.15,.11,.84,.9,.79,2.31-.11,3.15-12.14,11.34-20.37,28.54-20.45,28.72-.38,.8-1.18,1.28-2.02,1.28Z"/><path class="cls-3" d="M183.09,76.82c-.97,0-1.86-.64-2.14-1.62-.34-1.18,.34-2.42,1.52-2.76,.29-.08,7.28-2.06,15.29-.86,1.22,.18,2.06,1.32,1.87,2.54-.18,1.22-1.33,2.06-2.54,1.87-7.01-1.05-13.33,.72-13.4,.74-.2,.06-.41,.09-.61,.09Z"/><path class="cls-3" d="M134.35,64.92c-.57,0-1.14-.22-1.58-.65-2.11-2.11-12.15-9.01-15.83-11.48-1.02-.69-1.3-2.07-.61-3.1,.69-1.02,2.08-1.29,3.1-.61,1.39,.94,13.7,9.23,16.5,12.03,.87,.87,.87,2.28,0,3.15-.44,.44-1.01,.65-1.58,.65Z"/><path class="cls-3" d="M93.38,92.01c-.77,0-1.52-.4-1.94-1.12-.61-1.07-.25-2.43,.82-3.05,.63-.36,15.59-8.95,23.47-11.72,.84-.29,1.78-.06,2.39,.6,.6,.66,.75,1.62,.38,2.43l-2.1,4.63,11.35-3.68c1.18-.38,2.43,.26,2.81,1.43,.38,1.17-.26,2.43-1.43,2.81l-16.17,5.25c-.84,.27-1.76,.03-2.35-.64-.59-.66-.73-1.6-.37-2.41l1.85-4.07c-7.71,3.56-17.48,9.17-17.6,9.24-.35,.2-.73,.3-1.11,.3Z"/><path class="cls-3" d="M124.72,117.19c-.53,0-1.07-.19-1.49-.58-.91-.83-.99-2.24-.16-3.15l11.58-12.81c.83-.91,2.24-.99,3.15-.16,.91,.83,.99,2.24,.16,3.15l-11.58,12.81c-.44,.49-1.05,.74-1.66,.74Z"/><path class="cls-3" d="M188.8,99.89c-.4,0-.8-.11-1.16-.33l-6.12-3.74c-1.05-.64-1.38-2.02-.74-3.07,.64-1.05,2.01-1.38,3.07-.74l6.12,3.74c1.05,.64,1.38,2.02,.74,3.07-.42,.69-1.15,1.07-1.9,1.07Z"/></g><circle class="cls-3" cx="207.97" cy="74.21" r="3.02"/><path class="cls-3" d="M215.86,258.38c-1.62,0-3.23-.7-4.33-2.06-1.94-2.39-1.58-5.9,.8-7.85,3.41-2.78,6.78-5.85,10.01-9.14,2.58-2.62,5.06-5.64,7.38-8.95,1.77-2.52,5.24-3.14,7.77-1.37,2.52,1.76,3.14,5.24,1.37,7.77-2.67,3.82-5.55,7.32-8.57,10.38-3.52,3.58-7.19,6.93-10.93,9.97-1.03,.84-2.28,1.25-3.52,1.25Z"/><path class="cls-3" d="M217.38,278.91l46.67-19.31c1.97-.81,4.22,.21,4.9,2.23l19.73,58.56c.49,1.46,0,3.06-1.22,3.99-4.32,3.29-15.22,9.76-28.43,3.95-17.16-7.56-16.85-26.77-16.69-31.33l-18.95,7.06-6.01-25.14Z"/><g><path class="cls-3" d="M238.21,114.24c-.45,.92-1.8,.76-1.95-.25-.87-5.78-2.95-17.6,3.67-23.77,8.1-7.54,16.27-4.3,17.95,1.99s-1.49,9.43-7.68,12.48c-5.13,2.52-9.59,4.62-11.99,9.55Z"/><path class="cls-3" d="M251.36,131.55c-1.54,.66-3.06-1.03-2.2-2.47,2.95-4.99,8.98-12.53,19.8-16.24,17.01-5.83,31.96,4.09,28.03,14.49-3.94,10.39-18.27,9.45-26.45,6.61-7.04-2.44-10.66-6.04-19.17-2.39Z"/></g><path class="cls-3" d="M159.29,238.9c-1.03-3.7-4-6.62-7.64-7.78-1.93-.62-4.37-.8-6.2,.19-.69,.37-3.48,.88-4.83,5.09-.62,1.95-.84,4.94-.3,6.94,.46,1.7,2.5,2.08,3.73,.98,.11-.1,.22-.19,.33-.29,.03-.02,.03-.03,.09-.06,.25-.17,.49-.33,.75-.48,.26-.15,.52-.28,.79-.41-.33,.15,.43-.15,.5-.18,.28-.09,.57-.17,.86-.24,.06-.01,.49-.09,.59-.11,.52-.06,1.06-.08,1.58-.05,.06,0,.45,.05,.51,.05,.26,.04,.51,.09,.76,.16,.29,.07,.56,.2,.85,.27,.76,.19,1.29-.05,1.96-.34,.41-.17,1.17-.43,1.74-.58,.61-.16,1.33-.31,1.78-.36,1.41-.15,2.58-1.3,2.15-2.82Z"/></g></g></svg>