<?xml version="1.0" encoding="UTF-8"?><svg id="_레이어_2" xmlns="http://www.w3.org/2000/svg" viewBox="0 0 250.34 296.74"><defs><style>.cls-1{fill:#f6cadb;}.cls-2{fill:#fff;}.cls-3{fill:#fc699d;}.cls-4{fill:#b8f4f3;}</style></defs><g id="_레이어_2-2"><g><path class="cls-4" d="M187.19,128.54c-.37-.67-2.61-5.51-7.77-10.62-1.49-1.48-2.96-2.94-4.58-4.23-12.42-9.88-26.49-12.9-41.89-9.3-12.78,2.99-22.83,10.2-30.66,20.58-.35,.46-.66,.95-1.07,1.32-.58,.54-1.27,.67-1.96,.14-.64-.48-.87-1.12-.55-1.87,.17-.4,.37-.81,.66-1.09,1.39-1.35,1.57-2.91,1.09-4.66-.11-.4-.23-.83-.23-1.27,0-.98-.49-1.53-1.3-2.02-6.28-3.83-13.07-6.07-20.44-6.22-8.49-.14-16.24,2.36-23,7.46-12.75,9.67-19.69,22.48-20.18,38.64-.37,11.63,1.93,22.71,6.71,33.28,6.71,14.94,16.93,27.03,29.88,36.91,11.43,8.72,24.14,14.9,38.03,18.57,1.32,.35,2.59,.61,4,.23,3.63-.99,7.32-1.78,10.94-2.85,.44-.13,1.22-.08,1.35-.6,.26-1-1.12-1.53-1.55-2.25-1.65-2.72-1.5-5.9,.4-8.41,1.7-2.25,3.69-4.15,6.25-5.41,2.91-1.44,5.9-2.53,9.16-2.79,3.25-.26,6.6-.73,9.7,.81,1.44,.71,2.84,3.51,4.26,2.5,9.01-6.4,16.78-12.15,22.74-24.47,.21-.44-.84,.28-1.21,.46-3.68,1.76-6.99,.67-8.67-3.05-.35-.78-.64-1.61-.78-2.45-1.1-6.53,.69-12.27,4.92-17.3,.72-.86,1.69-1.56,2.68-2.13,3.07-1.78,6.29-.97,8.12,2.07,.57,.95,1.27,1.29,2.22,1.32,.83,.03,1.7-.15,2.53-.14,1.3,.01,1.94-.63,2.27-1.81,1.09-3.9,2.36-7.77,3.17-11.75,2.71-13.13,1.25-25.78-5.27-37.6Z"/><path class="cls-3" d="M249.52,183.91c-1.15-1.99-3.02-2.94-5.3-3.28,0-.6-.03-1.09,.03-1.58,.72-6.79,1.04-4.92-2.62-10.68-1.07-1.67-2.16-3.34-3.17-4.89,5.35-7.8,4.15-15.6-2.85-18.77-.23-3.71-1.15-7.17-4.26-9.53,.63-4-.32-6.42-3.51-8.23-2.91-1.64-5.9-1.38-8.84,.06-.89,.43-1.7,.95-2.76,1.55-3.17-4.66-6.28-9.24-9.41-13.85,.86-.63,1.5-1.07,2.1-1.55,3.34-2.68,6.74-5.33,9.96-8.09,1.12-.98,2.04-2.22,2.79-3.51,1.53-2.56,.12-4.75-2.88-4.64-.35,0-.72,.06-1.04,.14-2.79,.92-5.56,1.81-8.32,2.74-.72,.23-1.41,.55-2.3,.89-.37-6.77-3.94-10.82-10.25-11.83-6.05-1.01-9.24,3.05-11.46,7.92-8.95-.6-12.24,4.17-13.1,11.08-10.19-6.48-21.3-9.07-33.17-7.86-11.89,1.21-22.28,6.13-31.58,14.28-.75-12.61,.23-24.47,5.76-35.32,.6-1.21,1.27-2.42,2.02-3.63,9.07,.09,14.45-3.37,16.27-10.28,1.55-5.96-1.18-12.35-6.59-15.37-5.44-3.02-12.21-2.04-16.55,2.42-2.16,2.25-3.4,4.89-3.77,8-.55,4.98,1.41,9.01,4.92,12.35-1.61,2.07-2.91,4.26-3.97,6.51-1.04,2.22-1.87,4.49-2.59,6.85-2.36,7.8-3.37,15.78-3.37,23.9,0,.72-.03,1.47-.06,2.19-.35,0-.4,0-.46-.03-.72-.35-1.41-.69-2.1-1.04-10.25-5.07-20.87-6.25-31.78-2.68-9.56,3.11-17.04,9.16-22.92,17.22-3.71,5.1-6.91,10.45-8.41,16.73-2.02,8.49-2.59,17.07-1.27,25.71,.55,3.66,1.3,7.28,1.96,10.88-.69,1.07-1.41,2.19-2.25,3.51-.52-.06-1.3-.17-2.07-.14-1.84,.09-3.74,.03-5.53,.4-10.31,2.25-16.55,8.9-18.34,19.29-.09,.58-.4,1.27-.86,1.61-2.5,1.9-3.89,4.49-4.78,7.43-.98,3.28-1.18,6.65-.14,9.93,.92,2.94,2.62,5.21,5.99,5.7,.49,.06,1.01,.49,1.38,.86,1.47,1.5,3.25,2.07,5.24,1.93,1.01-.06,1.73,.17,2.5,.78,2.33,1.73,4.84,1.9,7.46,.66,1.87-.89,3.4-2.13,4.38-3.94,.4-.69,.78-1.32,1.67-1.53,3.08-.75,4.32-3.08,4.75-5.96,.52-3.57-.23-6.94-2.02-10.1-1.67-2.97-4.03-5.1-7.8-5.73,.46-1.41,.69-2.71,1.32-3.77,2.48-4.15,6.39-5.73,11.03-5.76,.6-.03,1.21,.55,1.78,.92,.98,.58,1.84,1.47,2.85,1.76,.98,.26,1.44,.75,1.9,1.5,6.79,11.8,15.75,21.68,26.54,29.97,.43,.35,.84,.72,1.21,1.07-.63,1.9-.63,3.66,.17,5.33,.37,.72,.37,1.3,0,2.02-2.56,4.78-5.07,9.59-7.63,14.48-.69-.09-1.47-.23-2.25-.26-1.53-.03-2.65,.72-3.05,2.19-.23,.72-.14,1.55-.2,2.33-.03,.55,.12,1.18-.12,1.64-.81,1.73-1.73,3.4-2.68,5.21-1.67-1.58-2.97-3.02-4.49-4.2-5.7-4.4-12.03-6.19-19.06-3.86-5.96,1.96-10.05,6.16-12.7,11.75-2.53,5.35-1.73,6.56,2.33,9.62,2.94,2.22,6.13,4.17,9.3,6.1,3.22,1.99,6.59,3.68,9.79,5.73,6.16,3.94,12.84,6.77,19.72,9.21,2.27,.83,4.35,.37,6.19-1.15,5.44-4.49,8-10.13,6.82-17.22-.14-.98-.03-1.81,.52-2.65,1.58-2.53,3.14-5.07,4.78-7.72,1.76-.06,3.11-.81,3.51-2.71,.43-1.9-.81-3.2-1.76-4.46,2.94-5.15,5.79-10.19,8.67-15.2,.23-.4,.63-.75,1.04-.95,1.47-.66,2.97-1.27,4.26-1.78,5.47,1.7,10.91,3.43,16.35,5.1,.86,.26,1.84,.43,2.71,.29,5.33-1.01,10.59-2.3,15.66-4.26,.49-.2,1.04-.26,1.61-.4,.09,.86,.12,1.58,.17,2.3,.35,3.57,1.04,7.05,2.5,10.36,3.71,8.55,11.46,12.93,20.7,11.72,1.53-.2,3.05-.43,4.58-.63,.35,.98,.49,1.87,.95,2.59,.46,.72,1.12,1.53,1.87,1.87,2.71,1.15,6.16-.86,6.65-3.74,.12-.63,.12-1.24,.89-1.53,2.88-1.12,5.79-2.27,8.84-3.45,0,.75-.03,1.15,0,1.58,.2,3.25,.17,6.56,.66,9.79,.63,4.23,2.3,8.12,5.15,11.37,2.97,3.4,6.68,5.27,11.26,5.3,6.94,0,12.18-3.51,16.87-8.18,.37-.37,.55-1.15,.49-1.76-.12-1.61-.32-3.25-.6-4.87-1.18-6.77-2.25-13.53-3.71-20.21-1.78-8.18-3.86-16.27-5.93-24.36-.83-3.25-2.07-3.89-5.44-3.83-5.27,.09-10.11,1.76-14.71,4.12-1.7,.89-3.11,2.48-4.61,3.74-.43,.35-.75,.92-1.24,1.15-4.15,2.07-8.29,4.09-12.41,6.07-2.07-1.81-4.15-2.36-6.13-1.55-1.78,.69-2.71,1.99-2.5,3.97-3.37-1.04-4.72-3.8-4.32-8.72,.37-.17,.75-.37,1.12-.58,2.36-1.35,4.09-3.17,3.94-6.1-.06-.98,.6-1.38,1.21-1.84,9.64-7.66,17.91-16.58,24.67-26.89,.58-.89,1.21-1.21,2.25-1.24,9.47-.06,18.14-2.85,26.05-7.95,6.36-4.09,11.54-9.33,14.48-16.47,.09-.26,.32-.46,.52-.75,.2,.29,.4,.49,.55,.75,1.38,2.25,2.74,4.52,4.12,6.77,.81,1.35,1.87,2.22,3.6,2.3,1.58,.09,3.17,.52,4.72,.81,0,4.98,2.02,7.77,5.67,8.15,3.28,.29,6.22-1.76,6.91-4.81,.35-1.61,.14-3.14-.66-4.58ZM124.17,70.36c-1.07-.03-1.84-.84-1.81-1.9,0-1.01,.72-1.73,1.73-1.7,1.07,0,1.84,.83,1.84,1.9-.03,1.04-.72,1.7-1.76,1.7Zm-3.45-17.48c.32-.78,1.04-.95,1.78-.75,.55,.12,1.09,.32,1.58,.6,3.17,1.9,4.81,4.72,4.98,8.9-.12,.58-.26,1.64-.55,2.65-.23,.75-.83,1.21-1.64,1.07-.92-.17-1.3-.92-1.09-1.78,.89-4.12-.55-7.05-4.4-8.84-.72-.35-.95-1.09-.66-1.84ZM21.22,270.79c1.76,.6,3.11,1.07,4.61,1.61-2.02,1.09-2.48,.95-4.61-1.61Zm5.35,4.15c1.87-.92,3.68-1.58,5.64,.06-3.63,2.13-3.68,1.73-5.64-.06Zm4.98,3.11c2.42-1.47,4.75-2.36,7,.03-2.62,2.42-3.71,2.45-7-.03Zm5.82,3.43c1.55-.72,2.82-1.3,4.17-1.93,1.15,.66,2.3,1.32,3.71,2.1-1.47,.86-2.62,1.5-3.83,2.22-1.3-.78-2.56-1.5-4.06-2.39Zm6.45,3.77c3.92-2.62,3.8-2.45,6.68,0-4.06,2.16-3.83,2.3-6.68,0Zm5.84,3.11c4.15-2.19,3.34-1.93,5.96,.17-2.07,1.58-2.74,2.02-5.96-.17Zm6.3,2.99q2.33-1.3,4.06,.06c.55,.43,1.09,.86,1.64,1.32,.09,.09,.12,.23,.23,.55-2.16-.06-3.86-1.12-5.93-1.93ZM216.03,133.96c1.41-2.62,3.68-4.12,6.51-4.78,1.81-.43,3.4,.12,4.72,1.38,.92,.83,1.27,1.9,.95,3.08-.12,.43-.49,.95-.86,1.07-3.17,.95-5.9,2.5-7.97,5.41-1.01-.69-1.96-1.18-2.71-1.9-1.3-1.15-1.44-2.76-.63-4.26Zm-9.1-29.05c.09-.29,.4-.6,.72-.75,3.34-1.55,6.68-3.14,10.34-3.89,.12-.03,.26,.06,.75,.2-3.97,4.58-8.61,7.86-13.56,11.31,.63-2.53,1.18-4.72,1.76-6.88Zm-28.44-3.34c2.13-1.73,4.58-2.3,7.17-.95,.26,.14,.52,.29,.78,.37,1.35,.37,2.22-.32,2.19-1.76-.12-4.69,4.55-8.29,8.98-6.94,4.49,1.38,6.51,4.64,6.13,10.02-.32,.2-.66,.46-1.01,.66-1.01,.55-2.02,1.04-3.14,1.64-.78-1.07-1.5-2.02-2.16-2.99-.55-.81-1.21-1.18-2.19-1.01-.32,.06-.69,.17-1.04,.12-1.5-.26-2.3,.46-2.62,2.04-1.55-.17-2.65,.32-2.85,2.04-.06,.35-.63,.69-1.01,.92-1.44,.86-1.67,1.47-1.01,2.97,.4,.92,.86,1.79,1.38,2.91-1.64,1.18-3.17,2.22-4.66,3.31-.69,.52-1.32,.49-1.96,.06-2.56-1.73-4.69-3.89-5.41-6.94-.63-2.53,.4-4.87,2.42-6.48Zm18.48,51.25c-.35-9.21-2.59-17.91-7.02-26-.26-.49-.52-.98-.92-1.73,1.53-.86,2.88-1.58,4.49-2.48,3.37,5.59,6.74,11.17,10.16,16.87-1.7,1.96-2.48,4.26-2.82,6.68-.72,5.44,.17,10.68,2.76,15.52,.83,1.58,.86,2.79,.09,4.32-2.22,4.26-5.1,7.92-9.07,10.62-.4,.29-.84,.52-1.7,1.04,.32-1.21,.49-1.99,.72-2.74,2.13-7.23,3.6-14.54,3.31-22.11Zm-5.76-32.65c-1.55,.81-2.71,1.41-4.03,2.1-.6-.86-1.15-1.61-1.81-2.56,1.96,.14,3.63,.29,5.84,.46Zm-4.32-3.66c1.07-.78,1.78-1.27,2.68-1.9,.43,.89,.69,1.47,1.09,2.36-1.27-.14-2.27-.29-3.77-.46Zm4.03-6.74c-.09-.14-.17-.29-.26-.4,.58-.81,1.15-1.61,1.64-2.27,.86-.52,1.7-.86,2.36-1.44,.89-.72,1.35-.4,1.96,.58-1.96,1.32-3.83,2.42-5.7,3.54Zm3.14,2.36c-.37,.43-.78,.86-1.3,1.47q.03-1.04,1.3-1.47Zm8.78-5.41c.37,.81-.03,1.41-.46,2.02q-.89-1.24,.46-2.02Zm-18.66,17.04c-2.76,.95-5.33,1.87-8.09,2.85,.69-1.96,2.85-4.2,5.7-6.05,.78,1.04,1.5,1.99,2.39,3.2ZM27.43,193.12c-4,2.65-6.42,6.22-6.25,11.2,.03,.58,.12,1.15,.26,1.7,.49,1.84,1.24,2.22,2.88,1.3,.69-.4,1.21-.32,1.76,.06,.58,.4,1.21,.81,1.67,1.32,2.25,2.59,3.31,5.64,3.22,9.07-.06,1.3-.26,2.68-1.5,3.71-.23-.95-.35-1.78-.63-2.59-.29-.78-.86-1.32-1.81-1.15-.83,.17-1.07,.86-1.09,1.61-.03,.81,.09,1.58,0,2.36-.26,2.76-1.5,4.87-4.12,6.02-1.5,.63-2.97,.69-4.2-.46-1.24-1.18-2.68-1.53-4.32-1.35-1.38,.17-2.45-.32-3.4-1.38-.52-.58-1.38-1.15-2.1-1.21-1.96-.09-2.99-1.24-3.71-2.79-1.78-3.83-.43-10.88,2.62-13.82,.49-.46,1.15-.86,1.78-1.09,1.09-.4,1.53-1.07,1.61-2.22,.14-1.7,.43-3.4,.78-5.07,.6-3.14,2.3-5.64,4.66-7.74,3.8-3.4,8.29-5.24,13.39-5.41,4.09-.14,4.84,.43,6.3,4.2,.12,.32,.17,.66,.35,1.21-3.14,.17-5.79,.95-8.15,2.53Zm49.86,65.47c-3.66-2.07-7.14-4.03-10.77-6.07,2.07-5.27,5.01-9.96,7.51-14.83,3.92,2.02,7.77,4,11.92,6.16-2.91,4.95-5.76,9.79-8.67,14.74Zm78.02-9.73c.84,4.81,1.64,9.64,2.48,14.42-6.59,2.65-15,1.15-19.29-4.52-2.71-3.57-4.09-7.69-4.49-12.06-.29-3.25-.09-6.54-.17-9.79-.03-1.12,.69-1.73,1.41-2.25,3.45-2.56,7.25-3.02,11.46-1.87,.17,2.3,.29,4.38,.49,6.42,.55,5.96,2.91,8.21,8.12,9.64Zm-.86-23.46c-1.5-.89-2.82-1.78-4.26-2.5-3.11-1.53-6.45-1.07-9.7-.81-3.25,.26-6.25,1.35-9.16,2.79-2.56,1.27-4.55,3.17-6.25,5.41-1.9,2.5-2.07,5.7-.4,8.41,.43,.72,.95,1.41,1.55,2.25-.49,.23-.92,.46-1.35,.6-3.66,.95-7.31,1.84-10.94,2.85-1.41,.37-2.68,.12-4-.23-13.88-3.71-26.6-9.85-38.03-18.57-12.96-9.87-23.18-21.97-29.88-36.91-4.78-10.57-7.08-21.65-6.71-33.28,.49-16.15,7.43-28.96,20.18-38.64,6.77-5.1,14.51-7.6,23-7.46,7.37,.14,14.16,2.39,20.44,6.22,.81,.49,1.3,1.04,1.3,2.02,0,.43,.12,.86,.23,1.27,.46,1.76,.32,3.34-1.09,4.66-.29,.29-.49,.69-.66,1.09-.32,.75-.09,1.38,.55,1.87,.69,.52,1.38,.4,1.96-.14,.4-.37,.72-.86,1.07-1.32,7.86-10.36,17.88-17.59,30.66-20.58,15.4-3.6,29.42-.52,41.89,9.3,1.61,1.3,3.05,2.79,4.58,4.23-1.55,1.47-3.08,2.76-4.43,4.23-.95,1.04-1.84,2.19-2.48,3.45-.95,1.96-.03,3.66,2.1,3.92,1.32,.14,2.74-.06,4-.43,2.45-.69,4.84-1.61,7.43-2.5,.37,.63,.78,1.3,1.15,1.96,6.39,11.89,7.97,24.47,5.27,37.6-.81,3.97-2.13,7.83-3.17,11.75-.35,1.18-.98,1.84-2.27,1.81-.83,0-1.7,.17-2.53,.14-.95-.03-1.64-.37-2.22-1.32-1.81-3.05-5.04-3.83-8.12-2.07-.98,.58-1.96,1.27-2.68,2.13-4.26,5.01-5.99,10.77-4.92,17.3,.14,.83,.43,1.67,.78,2.45,1.7,3.71,5.01,4.87,8.67,3.05,.37-.17,.72-.4,1.21-.46-6.25,9.41-13.93,17.53-22.74,24.47Zm62.53-44.54c-2.16,3.14-5.18,5.5-8.32,7.66-3.08,2.1-6.39,3.77-9.87,5.07-3.54,1.35-7.23,2.27-10.97,2.65-3.69,.37-7.4,.46-11.17-.43-1.01-4.29-.43-8.26,1.64-12.03,.63-1.15,1.61-1.53,2.88-1.21,6.74,1.61,12.35-.72,17.45-4.87,3.37-2.74,5.96-6.13,7.86-10.05,.4-.81,.66-1.61,1.73-1.99,1.09-.37,1.21-1.55,.32-2.48-2.27-2.36-3.37-5.3-3.97-8.38-.66-3.28-1.15-6.62-.06-9.96,.55-1.67,1.41-3.11,2.59-4.35,1.12-1.18,2.5-1.61,4.12-1.27,2.02,.46,2.68,1.81,1.73,3.66-.69,1.32-1.55,2.59-2.04,3.97-.98,2.65-.86,5.21,1.41,7.28,.26,.23,.43,.55,.63,.86,3.25,5.38,6.48,10.74,9.82,16.27-1.96,3.28-3.66,6.56-5.76,9.59Zm6.65-33.05c-2.25-.14-3.28-1.76-2.5-3.86,1.15-3.11,3.45-5.01,6.56-5.93,1.5-.43,2.3-.12,3.11,1.21,1.09,1.81,1.7,3.74,1.3,6.05-2.1,.78-4.2,1.58-6.36,2.3-.63,.23-1.38,.26-2.1,.23Zm12.81,12.44c-.6-.92-1.55-1.53-1.04-2.97,.43-1.12-.37-1.9-1.64-1.79-.55,.06-1.07,.29-1.61,.49-.58,.23-1.15,.55-1.78,.69-1.76,.43-2.97-.69-2.71-2.45,.43-2.97,2.76-5.41,5.7-5.87,1.53-.26,2.88,0,3.77,1.38,1.61,2.42,2.5,7.66-.69,10.51Zm10.48,27.72c-.49,1.41-1.76,2.19-3.34,2.02-1.47-.14-2.65-1.32-2.74-2.79-.06-.72,.06-1.35,.86-1.76,.81-.4,1.55-.95,2.45-1.5,.35,.12,.84,.2,1.27,.43,1.38,.72,1.99,2.22,1.5,3.6Z"/><path class="cls-2" d="M27.75,208.69c2.25,2.59,3.31,5.64,3.22,9.07-.06,1.3-.26,2.68-1.5,3.71-.23-.95-.35-1.78-.63-2.59-.29-.78-.86-1.32-1.81-1.15-.83,.17-1.07,.86-1.09,1.61-.03,.81,.09,1.58,0,2.36-.26,2.76-1.5,4.87-4.12,6.02-1.5,.63-2.97,.69-4.2-.46-1.24-1.18-2.68-1.53-4.32-1.35-1.38,.17-2.45-.32-3.4-1.38-.52-.58-1.38-1.15-2.1-1.21-1.96-.09-2.99-1.24-3.71-2.79-1.78-3.83-.43-10.88,2.62-13.82,.49-.46,1.15-.86,1.78-1.09,1.09-.4,1.53-1.07,1.61-2.22,.14-1.7,.43-3.4,.78-5.07,.6-3.14,2.3-5.64,4.66-7.74,3.8-3.4,8.29-5.24,13.39-5.41,4.09-.14,4.84,.43,6.3,4.2,.12,.32,.17,.66,.35,1.21-3.14,.17-5.79,.95-8.15,2.53-4,2.65-6.42,6.22-6.25,11.2,.03,.58,.12,1.15,.26,1.7,.49,1.84,1.24,2.22,2.88,1.3,.69-.4,1.21-.32,1.76,.06,.58,.4,1.21,.81,1.67,1.32Z"/><path class="cls-2" d="M85.96,243.85c-2.91,4.95-5.76,9.79-8.67,14.74-3.66-2.07-7.14-4.03-10.77-6.07,2.07-5.27,5.01-9.96,7.51-14.83,3.92,2.02,7.77,4,11.92,6.16Z"/><path class="cls-2" d="M157.79,263.28c-6.59,2.65-15,1.15-19.29-4.52-2.71-3.57-4.09-7.69-4.49-12.06-.29-3.25-.09-6.54-.17-9.79-.03-1.12,.69-1.73,1.41-2.25,3.45-2.56,7.25-3.02,11.46-1.87,.17,2.3,.29,4.38,.49,6.42,.55,5.96,2.91,8.21,8.12,9.64,.84,4.81,1.64,9.64,2.48,14.42Z"/><path class="cls-2" d="M228.21,133.64c-.12,.43-.49,.95-.86,1.07-3.17,.95-5.9,2.5-7.97,5.41-1.01-.69-1.96-1.18-2.71-1.9-1.3-1.15-1.44-2.76-.63-4.26,1.41-2.62,3.68-4.12,6.51-4.78,1.81-.43,3.4,.12,4.72,1.38,.92,.83,1.27,1.9,.95,3.08Z"/><path class="cls-2" d="M232.1,145.27c-2.1,.78-4.2,1.58-6.36,2.3-.63,.23-1.38,.26-2.1,.23-2.25-.14-3.28-1.76-2.5-3.86,1.15-3.11,3.45-5.01,6.56-5.93,1.5-.43,2.3-.12,3.11,1.21,1.09,1.81,1.7,3.74,1.3,6.05Z"/><path class="cls-2" d="M236.45,160.24c-.6-.92-1.55-1.53-1.04-2.97,.43-1.12-.37-1.9-1.64-1.79-.55,.06-1.07,.29-1.61,.49-.58,.23-1.15,.55-1.78,.69-1.76,.43-2.97-.69-2.71-2.45,.43-2.97,2.76-5.41,5.7-5.87,1.53-.26,2.88,0,3.77,1.38,1.61,2.42,2.5,7.66-.69,10.51Z"/><path class="cls-2" d="M222.74,171.27c-1.96,3.28-3.66,6.56-5.76,9.59-2.16,3.14-5.18,5.5-8.32,7.66-3.08,2.1-6.39,3.77-9.87,5.07-3.54,1.35-7.23,2.27-10.97,2.65-3.69,.37-7.4,.46-11.17-.43-1.01-4.29-.43-8.26,1.64-12.03,.63-1.15,1.61-1.53,2.88-1.21,6.74,1.61,12.35-.72,17.45-4.87,3.37-2.74,5.96-6.13,7.86-10.05,.4-.81,.66-1.61,1.73-1.99,1.09-.37,1.21-1.55,.32-2.48-2.27-2.36-3.37-5.3-3.97-8.38-.66-3.28-1.15-6.62-.06-9.96,.55-1.67,1.41-3.11,2.59-4.35,1.12-1.18,2.5-1.61,4.12-1.27,2.02,.46,2.68,1.81,1.73,3.66-.69,1.32-1.55,2.59-2.04,3.97-.98,2.65-.86,5.21,1.41,7.28,.26,.23,.43,.55,.63,.86,3.25,5.38,6.48,10.74,9.82,16.27Z"/><path class="cls-3" d="M132.17,29.8c1.73,2.19,3.23,3.98,4.6,5.86,1.38,1.89,2.91,1.91,3.71-.28,.93-2.53,1.62-5.17,2.21-7.8,1.83-8.24,2.54-16.62,2.86-25.05,.06-1.49-.31-2.13-1.27-2.39-1.37-.38-2.3,.04-2.9,1.46-.33,.78-.52,1.62-.71,2.46-1.14,5-2.25,10.01-3.38,15.01-.07,.32-.17,.63-.36,1.35-1.1-1.23-1.99-2.22-2.88-3.21-1.1-1.22-2.14-2.5-3.33-3.62-1.52-1.42-2.93-.91-3.41,1.13-.08,.34-.08,.71-.09,1.06-.13,5.63-.25,11.27-.39,16.9-.09,3.49-.23,6.99-.29,10.48-.03,1.93,.38,2.7,1.3,2.78,.89,.07,1.6-.68,1.94-2.46,.67-3.5,1.23-7.02,1.83-10.53,.15-.88,.31-1.77,.55-3.14Z"/><path class="cls-3" d="M86.57,56.96c4.15,.72,7.86,1.35,11.56,2.01,.9,.16,1.85,.66,2.39-.56,.4-.91-.13-1.97-1.51-2.41-2.57-.82-5.19-1.56-7.83-2.11-3.69-.78-7.36-1.79-11.19-1.5-1.83,.14-2.36,1.09-1.49,2.71,.3,.56,.7,1.08,1.06,1.61,.44,.64,.89,1.28,1.55,2.25-1.21,.11-2.18,.13-3.11,.3-2.37,.45-4.75,.91-7.09,1.49-.85,.21-1.99,.55-1.79,1.76,.2,1.24,1.36,1.02,2.26,1.05,4.71,.15,9.41,.3,14.12,.44,.36,.01,.72,.02,1.07-.02,1.8-.21,2.61-1.53,1.91-3.2-.49-1.15-1.12-2.25-1.91-3.81Z"/><path class="cls-3" d="M93.94,5c.15,.24,.32,.74,.67,1.06,2.73,2.5,4.53,5.67,6.36,8.81,3.56,6.11,6.58,12.47,8.88,19.18,.58,1.68,1.3,3.32,1.97,4.97,.16,.4,.28,.87,.57,1.13,.43,.38,1.04,.89,1.51,.83,.82-.11,1.04-.9,.86-1.68-.28-1.18-.57-2.36-.93-3.51-2.89-9.4-7.14-18.16-12.44-26.42-1.07-1.67-2.36-3.22-3.65-4.74-.48-.57-1.21-1.02-1.92-1.29-.93-.36-1.91,.47-1.88,1.66Z"/><path class="cls-3" d="M157.25,40.81c-5.25,.69-10.67,2.03-15.65,4.8-.61,.34-1.21,.79-1.65,1.32-.26,.31-.38,.98-.22,1.32,.16,.35,.75,.7,1.15,.69,.69-.02,1.42-.2,2.04-.5,4.56-2.26,9.35-3.73,14.4-4.38,.49-.06,.99-.16,1.45-.34,.8-.32,1.3-.91,1.09-1.83-.19-.81-.81-1.11-1.61-1.11-.21,0-.43,.02-1,.04Z"/><path class="cls-3" d="M87.43,35.3c.22,.28,.44,.77,.81,1.02,.88,.59,1.81,1.12,2.78,1.57,3.7,1.71,7.1,3.9,10.27,6.45,.17,.13,.33,.27,.5,.4,1.26,.98,2.14,1.06,2.79,.25,.65-.81,.47-1.65-.79-2.72-3.88-3.29-8.09-6.04-12.87-7.85-.72-.27-1.51-.41-2.27-.47-.75-.06-1.17,.4-1.22,1.35Z"/><path class="cls-3" d="M142.12,61.34c-.32,.22-1.1,.47-1.21,.91-.12,.44,.29,1.21,.7,1.55,.65,.53,1.5,.8,2.26,1.2,2.27,1.18,4.55,2.34,6.8,3.54,.78,.42,1.51,.52,2.12-.18,.6-.68,.49-1.47-.01-2.16-.24-.34-.58-.67-.95-.84-2.77-1.28-5.56-2.53-8.35-3.77-.32-.14-.7-.13-1.35-.25Z"/><path class="cls-3" d="M230.39,105.8c-1.22,0-2.29,0-3.35,0-.96,0-1.69-.38-1.77-1.43-.09-1.05,.6-1.64,1.53-1.68,2.54-.12,5.09-.13,7.63-.14,.33,0,.75,.15,.97,.38,.36,.39,.85,.93,.8,1.34-.05,.41-.66,1.01-1.1,1.08-1.6,.26-3.23,.33-4.7,.45Z"/><path class="cls-3" d="M234.12,90.81c-.15,.59-.52,.97-1.01,1.26-1.84,1.06-3.74,2.04-5.66,2.94-.72,.34-1.56,.29-2.06-.56-.42-.72-.21-1.7,.68-2.19,1.92-1.06,3.88-2.07,5.9-2.95,1.14-.5,2.2,.21,2.16,1.51Z"/><path class="cls-3" d="M219.22,84.29c0,.63-.24,1.01-.45,1.37-1,1.71-2.01,3.41-3.09,5.08-.4,.62-1.03,.99-1.83,.66-.86-.36-1.22-1.11-.93-1.9,.87-2.35,2.16-4.49,4.03-6.15,.53-.47,1.1-.29,1.56-.12,.34,.13,.66,.58,.7,1.07Z"/><path class="cls-3" d="M169.97,131.11c.18,.78-.29,1.3-.69,1.61-2.13,1.76-4.29,3.51-6.51,5.15-.86,.63-1.73,.4-2.25-.32-.63-.89-.23-1.67,.46-2.22,2.02-1.58,4.03-3.14,6.1-4.64,.49-.35,1.21-.52,1.78-.49,.43,.03,.95,.25,1.09,.89Z"/><path class="cls-3" d="M168.42,119.88c.14,1.07-.81,1.53-1.61,1.64-2.45,.37-4.92,.66-7.4,.84-1.21,.09-1.9-.63-1.93-1.55-.06-1.01,.63-1.61,1.99-1.7,2.04-.14,4.12-.26,6.54-.43h.49c.89,0,1.81,.12,1.93,1.21Z"/><path class="cls-3" d="M180.51,133.96c-.09,2.26-.83,4.46-1.5,6.48-.32,1.01-1.18,1.32-2.02,1.04-.92-.32-1.15-1.07-.95-1.87,.46-1.87,.98-3.69,1.5-5.53,.06-.2,.17-.4,.29-.58,.43-.69,1.01-1.41,1.87-.95,.52,.29,.83,.81,.81,1.41Z"/><path class="cls-3" d="M72.42,175.1c-.03,3.97,.63,7.83,2.59,11.34,.69,1.3,1.64,2.53,2.74,3.51,2.74,2.48,6.22,2.48,8.87-.09,1.3-1.24,2.5-2.82,3.2-4.49,2.85-6.91,2.79-13.91,0-20.84-.72-1.81-1.84-3.37-3.37-4.64-2.62-2.16-5.53-2.27-8.26-.26-2.27,1.67-3.48,4.09-4.43,6.68-.29,.78,.09,1.35,.66,1.87,1.38,1.21,2.74,2.48,4.09,3.74-.03,.14-.06,.32-.09,.46-1.27,.12-2.53,.23-3.8,.35-1.58,.17-2.19,.78-2.19,2.36Z"/><path class="cls-3" d="M112.46,177.17c.26,2.25,.69,4.49,1.27,6.68,.35,1.21,.98,2.36,1.7,3.43,3.2,4.75,8.26,5.07,11.98,.72,.84-.98,1.58-2.07,2.1-3.22,2.82-6.25,3.14-12.67,.95-19.17-.69-2.04-1.76-3.89-3.45-5.3-2.62-2.22-5.76-2.39-8.41-.26-1.27,1.01-2.33,2.3-3.22,3.66-1.55,2.36-1.38,3.08,.66,4.95,.98,.92,2.02,1.78,3.02,2.68,.37,.35,.72,.69,1.38,1.32-2.1,.46-3.86,.81-5.59,1.24-2.25,.58-2.62,.95-2.39,3.28Z"/><path class="cls-3" d="M47.61,166.23c.38,1.76,1.12,2.16,2.97,1.99,.75-.06,1.52-.14,2.33-.23,.17,.63,.29,1.12,.43,1.61,1.01,3.63,1.84,7.31,3.05,10.91,1.64,4.89,3.95,9.47,7.51,13.33,5.62,6.02,12.47,7.46,20.07,4.32,3.63-1.5,6.8-3.71,9.73-6.19,5.67-4.87,13.56-4.12,18.94-.66,.09,.06,.12,.26,.17,.37-.08,.08-.14,.26-.26,.29-1.19,.46-2.37,.98-3.6,1.35-6.08,1.78-12.15,3.68-18.66,2.62-.46-.06-1.24,.23-1.44,.6-.23,.43-.11,1.15,.03,1.73,.17,.75,.55,1.41,.72,2.15,.28,1.19,.35,2.42,.66,3.57,.44,1.57,.98,3.07,1.64,4.51,1.58,3.47,3.83,6.53,6.91,9.05,2.19,1.81,4.66,3.08,7.57,3.03,4.89-.09,9.01-1.96,12.26-5.68,2.7-3.08,4.29-6.71,5.01-10.71,.11-.62,.19-1.24,.27-1.87,.12-.91,.22-1.84,.33-2.79,.92,.29,1.67,.52,2.42,.75,3.75,1.18,7.52,1.41,11.38,.43,5.73-1.47,10.13-4.84,13.7-9.38,3.75-4.73,6.08-10.13,7.49-15.98,.57-2.48,.98-4.98,1.5-7.57,.55-.03,1.04-.03,1.52-.08,2.25-.2,2.91-.66,3.06-2.97,.31-4.29,.43-8.55,.55-12.84,.06-2.53-.58-3.14-3.06-3.43-.57-.08-1.15-.08-1.7-.08-3.37,.08-6.71,.26-10.05,.26-17.22,.09-34.43,.09-51.65,.14-15.29,.06-30.58,.17-45.86,.32-1.84,0-3.71,.17-5.53,.52-1.44,.26-1.99,1.12-2.01,2.62-.12,4.72,.63,9.38,1.58,13.99Zm50.58,46.41c2.1-2.97,4.69-4.32,7.98-4.55,.09,.26,.2,.43,.2,.63,.03,.86,.26,1.59,1.24,1.73,.92,.17,1.41-.41,1.9-1.1,2.59-3.77,6.45-5.3,10.77-6.22-.26,6.76-5.59,12.98-11.89,14.05-2.42,.43-4.69-.03-6.68-1.52-1.18-.89-2.24-1.93-3.51-3.02Zm-43.24-54.85c34.17-.43,68.14-.89,102.17-1.32,.12,.32,.32,.55,.32,.81,.61,9.13-.55,17.94-4.61,26.26-1.58,3.22-3.6,6.16-6.19,8.67-7.98,7.71-19,7.86-27.12,.29-3.31-3.06-6.93-5.44-11.34-6.6-5.84-1.52-11.17-.46-16.01,3.11-2.3,1.7-4.57,3.42-7,4.92-2.24,1.41-4.75,2.28-7.43,2.5-3.6,.29-6.76-.72-9.56-3.02-2.73-2.24-4.72-5.13-6.31-8.26-2.76-5.47-4.4-11.29-5.55-17.28-.43-2.3-.81-4.64-1.15-6.97-.14-.95-.14-1.96-.23-3.11Zm-.66-5.55c34.17-.14,68.12-.26,102.37-.4,.06,.37,.12,.75,.21,1.41-34.12,.43-68.06,.86-102.2,1.3-.12-.72-.23-1.38-.37-2.3Z"/><path class="cls-1" d="M98.2,212.64c1.27,1.09,2.33,2.13,3.51,3.02,1.99,1.5,4.26,1.96,6.68,1.52,6.31-1.06,11.63-7.29,11.89-14.05-4.32,.92-8.18,2.44-10.77,6.22-.49,.69-.98,1.27-1.9,1.1-.98-.14-1.21-.87-1.24-1.73,0-.2-.11-.37-.2-.63-3.28,.23-5.87,1.59-7.98,4.55Z"/></g></g></svg>